# xmcd CD database file
#
# Track frame offsets:
#	150
#	13862
#	27386
#	39625
#	51818
#	63853
#	76222
#	87904
#	99015
#	108207
#	119733
#	130664
#	142811
#	155258
#	169605
#	183488
#	197706
#	209333
#	221184
#	232538
#	244759
#	256930
#	270209
#	281622
#	294232
#
# Disc length: 4058 seconds
#
# Revision: 0
# Processed by: cddbd v1.5.2PL0 Copyright (c) Steve Scherf et al.
# Submitted via: CDex 2.12
#
DISCID=4e0fd819
DTITLE=Golden Country - Golden Country CD 2
DYEAR=2016
DGENRE=Country
TTITLE0=Bill Monroe - Blue moon of kentucky
TTITLE1=Johnny Cash - Tennessee flat-top box
TTITLE2=Red Foley - Tennessee border
TTITLE3=Hank Williams - Your cheatin' heart
TTITLE4=Flatt and Scruggs - Foggy mountain breakdown
TTITLE5=Skeets McDonald - Don't let the stars get in your eyes
TTITLE6=Goldie Hill - I let the stars get in my eyes
TTITLE7=Webb Pierce - I don't care
TTITLE8=Loretta Lynn - Gonna pack my troubles
TTITLE9=Ray Price - Crazy arms
TTITLE10=Faron Young - Hello walls
TTITLE11=Ted Daffon and His Texans - Born to lose
TTITLE12=Brenda Lee - Jambalaya
TTITLE13=Jimmie Rodgers - The brakeman's blues (yodelling the blues away)
TTITLE14=The Carter Family - Foggy mountain top
TTITLE15=Marc Williams - The little old sod shanty on my claim
TTITLE16=Porter Wagoner - Misery loves company
TTITLE17=Kitty Wells - Heartbreak USA
TTITLE18=Buck Owens - Save the last dance for me
TTITLE19=Willie Nelson and Shirley Collie - Willingly
TTITLE20=Bonnie Guitar - Dark moon
TTITLE21=Tex Ritter - Jealous heart
TTITLE22=Don Gibson - Oh lonesome me
TTITLE23=Montana Slim - The golden lariat
TTITLE24=Jim Reeves - Losing your love
EXTD=YEAR: 2016
EXTT0=
EXTT1=
EXTT2=
EXTT3=
EXTT4=
EXTT5=
EXTT6=
EXTT7=
EXTT8=
EXTT9=
EXTT10=
EXTT11=
EXTT12=
EXTT13=
EXTT14=
EXTT15=
EXTT16=
EXTT17=
EXTT18=
EXTT19=
EXTT20=
EXTT21=
EXTT22=
EXTT23=
EXTT24=
PLAYORDER=
